<svg xmlns="http://www.w3.org/2000/svg" width="1em" height="1em" viewBox="0 0 20 15.996">
  <path id="comments-question-regular" d="M2.522,7.912a1.5,1.5,0,0,1,.234,1.744c-.034.062-.069.125-.1.184-.078.141-.162.281-.247.425A9.765,9.765,0,0,0,3.969,9.7q.2-.089.394-.187a1.5,1.5,0,0,1,.959-.131A6.083,6.083,0,0,0,6.5,9.5c3.006,0,5-2.016,5-4s-1.994-4-5-4-5,2.019-5,4A3.479,3.479,0,0,0,2.522,7.912ZM13,5.5C13,8.537,10.09,11,6.5,11a7.836,7.836,0,0,1-1.472-.141c-.144.072-.294.144-.444.212A9.565,9.565,0,0,1,.75,12a.748.748,0,0,1-.544-1.262A8.976,8.976,0,0,0,1.35,9.109c.028-.053.059-.106.087-.159A4.987,4.987,0,0,1,0,5.5C0,2.462,2.909,0,6.5,0S13,2.462,13,5.5ZM7.662,11.921a8.368,8.368,0,0,0,1.562-.369A5.247,5.247,0,0,0,13.5,13.5a6.286,6.286,0,0,0,1.181-.112,1.5,1.5,0,0,1,.959.131q.192.1.394.187a10.2,10.2,0,0,0,1.559.562c-.087-.144-.169-.284-.247-.425-.034-.059-.069-.122-.1-.184a1.5,1.5,0,0,1,.234-1.744A3.5,3.5,0,0,0,18.5,9.5c0-1.872-1.775-3.772-4.5-3.981V5.5a5.859,5.859,0,0,0-.194-1.494C17.253,4.14,20,6.55,20,9.5a4.984,4.984,0,0,1-1.434,3.447c.028.053.059.109.087.159A8.677,8.677,0,0,0,19.8,14.734.748.748,0,0,1,19.252,16a9.565,9.565,0,0,1-3.834-.928c-.15-.069-.3-.141-.444-.212A7.561,7.561,0,0,1,13.5,15a6.691,6.691,0,0,1-5.837-3.078ZM4.622,3.5a1.21,1.21,0,0,1,1.137-.8H7.05a1.365,1.365,0,0,1,.678,2.55L7,5.669v.009a.5.5,0,1,1-1,0v-.3a.508.508,0,0,1,.25-.434l.981-.562a.371.371,0,0,0,.184-.319A.366.366,0,0,0,7.05,3.7H5.759a.213.213,0,0,0-.2.137l-.009.028a.5.5,0,1,1-.941-.334L4.622,3.5ZM5.79,7.625a.709.709,0,1,1,1.416,0,.709.709,0,1,1-1.416,0Z" fill="#fff"/>
</svg>
