<svg id="user" xmlns="http://www.w3.org/2000/svg" width="1em" height="1em" viewBox="0 0 28 28">
  <g id="user-regular" transform="translate(0 2)">
    <path id="user-regular-2" d="M12.75,14.25H8.25A8.25,8.25,0,0,0,0,22.5,1.5,1.5,0,0,0,1.5,24h18A1.5,1.5,0,0,0,21,22.5,8.25,8.25,0,0,0,12.75,14.25ZM2.3,21.75A6.006,6.006,0,0,1,8.25,16.5h4.5A6.009,6.009,0,0,1,18.7,21.75ZM10.5,12a6,6,0,1,0-6-6A6,6,0,0,0,10.5,12Zm0-9.75A3.75,3.75,0,1,1,6.75,6,3.754,3.754,0,0,1,10.5,2.25Z" fill="#292929"/>
  </g>
</svg>
