<svg id="BK-logo" xmlns="http://www.w3.org/2000/svg" width="204" height="60" viewBox="0 0 204 60">
  <path id="Path_36" data-name="Path 36" d="M50,31.6V0H34.2V47.4H65.8V31.6Z" transform="translate(-0.439 0.001)" fill="#f19106"/>
  <path id="Path_37" data-name="Path 37" d="M99.6,15.8h0A15.8,15.8,0,0,0,68,15.6v.2h0V31.6h0a15.8,15.8,0,0,0,31.6.2v-.2h0Z" transform="translate(-0.478 0.001)" fill="#23b9d9"/>
  <path id="Path_38" data-name="Path 38" d="M133.4,31.6H117.6V15.8h15.8a15.8,15.8,0,0,0-31.6-.2v.2h0V31.6h0a15.8,15.8,0,0,0,31.6.2Z" transform="translate(-0.517 0.001)" fill="#b32c87"/>
  <path id="Path_39" data-name="Path 39" d="M18.1,19.7A9.85,9.85,0,1,0,18.1,0H.4V47.4H18.2a13.85,13.85,0,1,0-.1-27.7Z" transform="translate(-0.4 0.001)" fill="#e64385"/>
  <g id="Group_99" data-name="Group 99" transform="translate(82.757 52.1)">
    <path id="Path_40" data-name="Path 40" d="M83.3,56.4A2.254,2.254,0,0,1,85.4,54a1.683,1.683,0,0,1,1.5.7V52.6h1v6.1h-1v-.6a2.175,2.175,0,0,1-1.6.7A2.24,2.24,0,0,1,83.3,56.4Zm3.6,0a1.3,1.3,0,1,0-2.6,0,1.347,1.347,0,0,0,1.3,1.4A1.288,1.288,0,0,0,86.9,56.4Z" transform="translate(-83.3 -52.2)" fill="#868686"/>
    <path id="Path_41" data-name="Path 41" d="M88.9,56.4A2.369,2.369,0,0,1,91.3,54a2.308,2.308,0,0,1,2.2,2.3v.4H90a1.32,1.32,0,0,0,1.4,1.1,2.01,2.01,0,0,0,1.3-.4l.4.8a3.371,3.371,0,0,1-1.7.5A2.259,2.259,0,0,1,88.9,56.4Zm3.5-.4a1.221,1.221,0,0,0-1.3-1.1A1.364,1.364,0,0,0,89.8,56Z" transform="translate(-83.3 -52.2)" fill="#868686"/>
    <path id="Path_42" data-name="Path 42" d="M94.1,58.1l.4-.8a2.638,2.638,0,0,0,1.5.5c.4,0,.9-.2.9-.5s-.5-.4-.9-.5c-.9-.2-1.6-.5-1.6-1.4A1.569,1.569,0,0,1,96.1,54a2.767,2.767,0,0,1,1.6.5l-.4.8A2.768,2.768,0,0,0,96,55c-.3,0-.7.2-.7.4,0,.3.4.4.8.5.9.2,1.7.5,1.7,1.5,0,1.1-1.1,1.5-2,1.5A4.442,4.442,0,0,1,94.1,58.1Z" transform="translate(-83.3 -52.2)" fill="#868686"/>
    <path id="Path_43" data-name="Path 43" d="M98.6,52.8a.6.6,0,1,1,.6.6A.645.645,0,0,1,98.6,52.8Zm.1,1.3h1v4.6h-1Z" transform="translate(-83.3 -52.2)" fill="#868686"/>
    <path id="Path_44" data-name="Path 44" d="M101,59.4l.4-.6a2.389,2.389,0,0,0,1.4.5,1.4,1.4,0,0,0,1.5-1.6h0a1.606,1.606,0,0,1-1.5.8,2.2,2.2,0,0,1,0-4.4,1.816,1.816,0,0,1,1.6.8v-.7h1v3.5a2.254,2.254,0,0,1-2.4,2.4A3.367,3.367,0,0,1,101,59.4Zm3.3-3.2a1.3,1.3,0,0,0-2.6,0,1.3,1.3,0,0,0,2.6,0Z" transform="translate(-83.3 -52.2)" fill="#868686"/>
    <path id="Path_45" data-name="Path 45" d="M106.3,54.1h1v.7a1.683,1.683,0,0,1,1.5-.7c1.2,0,1.7.8,1.7,2v2.6h-1V56.2c0-.7-.2-1.2-.9-1.2a1.184,1.184,0,0,0-1.2,1.3v2.4h-1V54.1Z" transform="translate(-83.3 -52.2)" fill="#868686"/>
    <path id="Path_46" data-name="Path 46" d="M111.3,56.4a2.369,2.369,0,0,1,2.4-2.4,2.308,2.308,0,0,1,2.2,2.3v.4h-3.5a1.32,1.32,0,0,0,1.4,1.1,2.01,2.01,0,0,0,1.3-.4l.4.8a3.371,3.371,0,0,1-1.7.5A2.311,2.311,0,0,1,111.3,56.4Zm3.6-.4a1.221,1.221,0,0,0-1.3-1.1,1.364,1.364,0,0,0-1.3,1.1Z" transform="translate(-83.3 -52.2)" fill="#868686"/>
    <path id="Path_47" data-name="Path 47" d="M116.6,56.4a2.254,2.254,0,0,1,2.1-2.4,1.683,1.683,0,0,1,1.5.7V52.6h1v6.1h-1v-.6a2.175,2.175,0,0,1-1.6.7A2.315,2.315,0,0,1,116.6,56.4Zm3.7,0a1.3,1.3,0,1,0-2.6,0,1.347,1.347,0,0,0,1.3,1.4A1.288,1.288,0,0,0,120.3,56.4Z" transform="translate(-83.3 -52.2)" fill="#868686"/>
    <path id="Path_48" data-name="Path 48" d="M125.4,58.1v.6h-1V52.6h1v2.1a2.127,2.127,0,0,1,1.5-.7,2.191,2.191,0,0,1,2.1,2.4,2.254,2.254,0,0,1-2.1,2.4A2.628,2.628,0,0,1,125.4,58.1Zm2.7-1.7a1.3,1.3,0,1,0-2.6,0,1.288,1.288,0,0,0,1.3,1.4A1.347,1.347,0,0,0,128.1,56.4Z" transform="translate(-83.3 -52.2)" fill="#868686"/>
    <path id="Path_49" data-name="Path 49" d="M130.3,59a.963.963,0,0,0,1-.7l.1-.2-2-4.1h1.1l1.1,2.4a6.66,6.66,0,0,0,.3.7s.2-.5.3-.8l1-2.4h1l-2.1,4.8a1.814,1.814,0,0,1-1.8,1.2V59Z" transform="translate(-83.3 -52.2)" fill="#868686"/>
    <path id="Path_50" data-name="Path 50" d="M136.6,56.4A2.433,2.433,0,0,1,139,54a2.271,2.271,0,0,1,1.6.6l-.6.7a1.493,1.493,0,0,0-1-.3,1.4,1.4,0,1,0,1.1,2.4l.6.8a2.482,2.482,0,0,1-4.1-1.8Z" transform="translate(-83.3 -52.2)" fill="#868686"/>
    <path id="Path_51" data-name="Path 51" d="M141.5,52.6h1v6.1h-1Z" transform="translate(-83.3 -52.2)" fill="#868686"/>
    <path id="Path_52" data-name="Path 52" d="M143.5,52.8a.6.6,0,1,1,.6.6A.645.645,0,0,1,143.5,52.8Zm.1,1.3h1v4.6h-1Z" transform="translate(-83.3 -52.2)" fill="#868686"/>
    <path id="Path_53" data-name="Path 53" d="M145.7,54.1h1v.7A1.653,1.653,0,0,1,148,54a1.551,1.551,0,0,1,1.5.9A2.016,2.016,0,0,1,151,54c1.2,0,1.7.7,1.7,2v2.6h-1V56.1c0-.6-.1-1.2-.9-1.2a.972.972,0,0,0-1,1.1v2.5h-1V56c0-.6-.1-1.2-.9-1.2a1.131,1.131,0,0,0-1.1,1.2v2.5h-1V54.1Z" transform="translate(-83.3 -52.2)" fill="#868686"/>
    <path id="Path_54" data-name="Path 54" d="M154.7,58.1v.6h-1V52.6h1v2.1a2.127,2.127,0,0,1,1.5-.7,2.191,2.191,0,0,1,2.1,2.4,2.254,2.254,0,0,1-2.1,2.4A2.966,2.966,0,0,1,154.7,58.1Zm2.7-1.7a1.3,1.3,0,1,0-2.6,0,1.288,1.288,0,0,0,1.3,1.4A1.347,1.347,0,0,0,157.4,56.4Z" transform="translate(-83.3 -52.2)" fill="#868686"/>
    <path id="Path_55" data-name="Path 55" d="M159.2,56.4a2.369,2.369,0,0,1,2.4-2.4,2.308,2.308,0,0,1,2.2,2.3v.4h-3.5a1.32,1.32,0,0,0,1.4,1.1,2.01,2.01,0,0,0,1.3-.4l.4.8a3.371,3.371,0,0,1-1.7.5A2.259,2.259,0,0,1,159.2,56.4Zm3.6-.4a1.221,1.221,0,0,0-1.3-1.1,1.364,1.364,0,0,0-1.3,1.1Z" transform="translate(-83.3 -52.2)" fill="#868686"/>
    <path id="Path_56" data-name="Path 56" d="M164.6,54.1h1V55a1.672,1.672,0,0,1,1.7-1v1.1a1.529,1.529,0,0,0-1.7,1.7v1.9h-1Z" transform="translate(-83.3 -52.2)" fill="#868686"/>
    <path id="Path_57" data-name="Path 57" d="M167.8,58.1l.4-.8a2.638,2.638,0,0,0,1.5.5c.4,0,.9-.2.9-.5s-.5-.4-.9-.5c-.9-.2-1.6-.5-1.6-1.4a1.569,1.569,0,0,1,1.7-1.4,2.767,2.767,0,0,1,1.6.5l-.4.8a2.768,2.768,0,0,0-1.3-.3c-.3,0-.7.2-.7.4,0,.3.4.4.8.5.9.2,1.7.5,1.7,1.5,0,1.1-1.1,1.5-2,1.5A4.442,4.442,0,0,1,167.8,58.1Z" transform="translate(-83.3 -52.2)" fill="#868686"/>
  </g>
  <g id="Group_100" data-name="Group 100" transform="translate(163.7 11.968)">
    <path id="Path_58" data-name="Path 58" d="M164.3,14.2a2.2,2.2,0,1,1,2.2,2.2A2.22,2.22,0,0,1,164.3,14.2Zm.4,4.6h3.7V35.2h-3.7Z" transform="translate(-164.3 -12)" fill="#868686"/>
    <path id="Path_59" data-name="Path 59" d="M171.5,27c0-4.7,3.1-8.5,7.6-8.5a7.24,7.24,0,0,1,5.5,2.4V13.4h3.7V35.2h-3.5V33.1a7.3,7.3,0,0,1-5.6,2.4C174.6,35.5,171.5,31.7,171.5,27Zm13.1,0c0-2.9-1.9-5-4.5-5a4.73,4.73,0,0,0-4.8,5,4.662,4.662,0,1,0,9.3,0Z" transform="translate(-164.3 -12)" fill="#868686"/>
    <path id="Path_60" data-name="Path 60" d="M191.1,33.1l1.4-3a7.832,7.832,0,0,0,5.2,2c1.5,0,3.2-.6,3.2-1.7,0-1.2-1.7-1.5-3.3-2-3.1-.9-5.8-1.8-5.8-5s3.3-4.9,6.2-4.9a10.493,10.493,0,0,1,5.9,1.7l-1.4,3A8.923,8.923,0,0,0,198,22c-1.2,0-2.4.6-2.4,1.4,0,1.1,1.4,1.4,2.8,1.7,3,.7,6.2,1.9,6.2,5.3,0,3.8-3.9,5.2-7,5.2A10.493,10.493,0,0,1,191.1,33.1Z" transform="translate(-164.3 -12)" fill="#868686"/>
  </g>
  <path id="Path_61" data-name="Path 61" d="M167.2,47.4,151.4,23.7,167.2,0H135.6V47.4h31.6Z" transform="translate(-0.557 0.001)" fill="#868686"/>
</svg>
